# xmcd
#
# Track frame offsets: 
#        182
#        12862
#        26027
#        39062
#        50530
#        65452
#        79792
#        93082
#        107910
#        121990
#        136212
#        149880
#        162070
#        176115
#        189665
#        202647
#        217182
#        231075
#        244842
#        258767
#        272047
#        285585
#        296690
#        310612
#
# Disc length: 4307 seconds
#
# Revision: 2
# Processed by: cddbd v1.5.2PL0 Copyright (c) Steve Scherf et al.
# Submitted via: ExactAudioCopyFreeDBPlugin 1.0
#
DISCID=5610d118
DTITLE=Buddy Johnson - The Chronological Buddy Johnson and His Band, 1
DTITLE=939-1942
DYEAR=1996
DGENRE=Rhythm and Blues
TTITLE0=When You're Out with Me
TTITLE1=Jammin' in Georgia
TTITLE2=Stop Pretending (So Hip You See)
TTITLE3=Reese's Idea
TTITLE4=Southern Echoes
TTITLE5=You Won't Let Me Go
TTITLE6=Please, Mister Johnson
TTITLE7=Swing Along with Me
TTITLE8=Boogie Woogie's Mother-in-Law
TTITLE9=I'd Be Ever So Grateful
TTITLE10=In There
TTITLE11=I'm My Baby's Baby
TTITLE12=New Please Mr. Johnson
TTITLE13=It's the Gold
TTITLE14=Troyan Swing
TTITLE15=Southern Exposure
TTITLE16=I Wonder Who's Boogiein' My Woogie Now
TTITLE17=I'm Stepping Out
TTITLE18=Baby Don't You Cry
TTITLE19=Toodle-Oodle-Oo
TTITLE20=Without the One You Love
TTITLE21=Stand Back and Smile (Say Ella)
TTITLE22=Deep Down in the Miz
TTITLE23=You'll Get Them Blues
EXTD=Series: Chronogical Classics Nr. 884
EXTT0=
EXTT1=
EXTT2=
EXTT3=
EXTT4=
EXTT5=
EXTT6=
EXTT7=
EXTT8=
EXTT9=
EXTT10=
EXTT11=
EXTT12=
EXTT13=
EXTT14=
EXTT15=
EXTT16=
EXTT17=
EXTT18=
EXTT19=
EXTT20=
EXTT21=
EXTT22=
EXTT23=
PLAYORDER=
